<svg width="19" height="19" viewBox="0 0 19 19" fill="none" xmlns="http://www.w3.org/2000/svg">
<g clip-path="url(#clip0_36_591)">
<path d="M16.9642 16.9644C16.9642 17.3243 16.8212 17.6696 16.5667 17.9241C16.3122 18.1785 15.967 18.3216 15.6071 18.3216H3.39279C3.03285 18.3216 2.68766 18.1785 2.43314 17.9241C2.17863 17.6696 2.03564 17.3243 2.03564 16.9644V2.03585C2.03564 1.67591 2.17863 1.33072 2.43314 1.07621C2.68766 0.821695 3.03285 0.678711 3.39279 0.678711H12.2142L16.9642 5.42871V16.9644Z" stroke="#495B69" stroke-width="2" stroke-linecap="round" stroke-linejoin="round"/>
<path d="M7.46429 14.2503L4.75 11.5361L7.46429 8.82178" stroke="#495B69" stroke-width="2" stroke-linecap="round" stroke-linejoin="round"/>
<path d="M11.5356 14.2503L14.2499 11.5361L11.5356 8.82178" stroke="#495B69" stroke-width="2" stroke-linecap="round" stroke-linejoin="round"/>
</g>
<defs>
<clipPath id="clip0_36_591">
<rect width="19" height="19" fill="white"/>
</clipPath>
</defs>
</svg>
