<svg width="42" height="42" viewBox="0 0 42 42" fill="none" xmlns="http://www.w3.org/2000/svg">
<g clip-path="url(#clip0_30_182)">
<path d="M3.69993 9.26088C1.76795 10.4185 1.76856 12.0876 3.69057 13.249C5.58156 14.3917 7.5534 15.5594 9.80487 16.6396C12.0563 17.7197 14.4905 18.6657 16.8723 19.5729C19.2933 20.495 22.7723 20.4953 25.1853 19.5684C27.5464 18.6615 29.9553 17.7142 32.1951 16.6396C34.4352 15.5651 36.4098 14.4094 38.3001 13.2767C40.2321 12.119 40.2315 10.45 38.3094 9.28854C36.4185 8.14584 34.4466 6.97809 32.1951 5.89797C29.9437 4.81785 27.5096 3.87186 25.1277 2.96467C22.7067 2.04259 19.2277 2.0423 16.8147 2.96915C14.4536 3.87603 12.0447 4.82334 9.80478 5.89791C7.56486 6.97251 5.59029 8.12817 3.69993 9.26088Z" fill="#495B69" stroke="#495B69" stroke-width="3.17691"/>
<path d="M39.7499 23.3844C37.7012 24.5171 35.5613 25.6728 33.1337 26.7474C30.7061 27.8219 28.0952 28.7692 25.5363 29.6761C22.9211 30.6029 19.1506 30.6026 16.5268 29.6806C13.9454 28.7734 11.3074 27.8274 8.86728 26.7473C6.42717 25.6672 4.29015 24.4994 2.24072 23.3567" stroke="#495B69" stroke-width="3.17691" stroke-linecap="round"/>
<path d="M39.7499 32.7593C37.7012 33.8921 35.5613 35.0477 33.1337 36.1223C30.7061 37.1969 28.0952 38.1443 25.5363 39.0512C22.9211 39.9779 19.1506 39.9776 16.5268 39.0557C13.9454 38.1485 11.3074 37.2026 8.86728 36.1223C6.42717 35.0423 4.29015 33.8744 2.24072 32.7317" stroke="#495B69" stroke-width="3.17691" stroke-linecap="round"/>
</g>
<defs>
<clipPath id="clip0_30_182">
<rect width="42" height="42" fill="white"/>
</clipPath>
</defs>
</svg>
