<svg width="55" height="48" viewBox="0 0 55 48" fill="none" xmlns="http://www.w3.org/2000/svg">
<path d="M24.871 5.78792C24.3277 4.50769 22.966 3.62761 21.4033 3.56556C15.7592 3.34137 12.3539 3.40144 7.82529 3.67969C5.93321 3.79596 4.4288 5.09744 4.2123 6.74196C2.88691 16.8096 2.4472 26.9122 3.82787 37.0029C4.29637 40.427 7.50908 42.9158 11.3525 43.2809C22.205 44.3123 32.9016 44.2859 43.7536 43.2549C47.5247 42.8966 50.552 40.2902 51.0019 37.0029C51.8551 30.7665 52.0826 24.3737 51.5515 16.5321C51.3315 13.2835 48.4125 10.6691 44.6961 10.4006C39.4141 10.019 35.7431 9.99715 29.2514 9.87728C27.6427 9.84756 26.2173 8.96069 25.6585 7.64384L24.871 5.78792Z" fill="#495B69" stroke="white" stroke-width="3.17691" stroke-linejoin="round"/>
</svg>
