<svg width="20" height="20" viewBox="0 0 20 20" fill="none" xmlns="http://www.w3.org/2000/svg">
<path d="M10 15.9692H18.3571" stroke="#495B69" stroke-width="2" stroke-linecap="round" stroke-linejoin="round"/>
<path d="M15.9697 13.5815L18.3576 15.9693L15.9697 18.357" stroke="#495B69" stroke-width="2" stroke-linecap="round" stroke-linejoin="round"/>
<path d="M7.0161 5.22482C8.00524 5.22482 8.8071 4.42296 8.8071 3.43382C8.8071 2.44468 8.00524 1.64282 7.0161 1.64282C6.02696 1.64282 5.2251 2.44468 5.2251 3.43382C5.2251 4.42296 6.02696 5.22482 7.0161 5.22482Z" stroke="#495B69" stroke-width="2" stroke-linecap="round" stroke-linejoin="round"/>
<path d="M11.791 11.1943C12.7801 11.1943 13.582 10.3924 13.582 9.4033C13.582 8.41416 12.7801 7.6123 11.791 7.6123C10.8019 7.6123 10 8.41416 10 9.4033C10 10.3924 10.8019 11.1943 11.791 11.1943Z" stroke="#495B69" stroke-width="2" stroke-linecap="round" stroke-linejoin="round"/>
<path d="M8.20897 17.7605C9.19811 17.7605 9.99997 16.9586 9.99997 15.9695C9.99997 14.9803 9.19811 14.1785 8.20897 14.1785C7.21983 14.1785 6.41797 14.9803 6.41797 15.9695C6.41797 16.9586 7.21983 17.7605 8.20897 17.7605Z" stroke="#495B69" stroke-width="2" stroke-linecap="round" stroke-linejoin="round"/>
<path d="M10.0002 9.40356H4.92624C3.113 9.40356 1.64307 10.8735 1.64307 12.6867C1.64307 14.5 3.113 15.9699 4.92624 15.9699H6.4186" stroke="#495B69" stroke-width="2" stroke-linecap="round" stroke-linejoin="round"/>
<path d="M13.5817 9.40324H15.3725C17.021 9.40324 18.3572 8.06695 18.3572 6.41853C18.3572 4.77013 17.021 3.43384 15.3725 3.43384H8.80615" stroke="#495B69" stroke-width="2" stroke-linecap="round" stroke-linejoin="round"/>
<path d="M5.22472 3.43384H1.64307" stroke="#495B69" stroke-width="2" stroke-linecap="round" stroke-linejoin="round"/>
</svg>
