<svg width="18" height="18" viewBox="0 0 18 18" fill="none" xmlns="http://www.w3.org/2000/svg">
<g clip-path="url(#clip0_36_560)">
<path d="M9 14.9692H17.3571" stroke="#495B69" stroke-linecap="round" stroke-linejoin="round"/>
<path d="M14.9697 12.5815L17.3576 14.9693L14.9697 17.357" stroke="#495B69" stroke-linecap="round" stroke-linejoin="round"/>
<path d="M6.0161 4.22482C7.00524 4.22482 7.8071 3.42296 7.8071 2.43382C7.8071 1.44468 7.00524 0.642822 6.0161 0.642822C5.02696 0.642822 4.2251 1.44468 4.2251 2.43382C4.2251 3.42296 5.02696 4.22482 6.0161 4.22482Z" stroke="#495B69" stroke-linecap="round" stroke-linejoin="round"/>
<path d="M10.791 10.1943C11.7801 10.1943 12.582 9.39245 12.582 8.4033C12.582 7.41416 11.7801 6.6123 10.791 6.6123C9.80186 6.6123 9 7.41416 9 8.4033C9 9.39245 9.80186 10.1943 10.791 10.1943Z" stroke="#495B69" stroke-linecap="round" stroke-linejoin="round"/>
<path d="M7.20897 16.7605C8.19811 16.7605 8.99997 15.9586 8.99997 14.9695C8.99997 13.9803 8.19811 13.1785 7.20897 13.1785C6.21983 13.1785 5.41797 13.9803 5.41797 14.9695C5.41797 15.9586 6.21983 16.7605 7.20897 16.7605Z" stroke="#495B69" stroke-linecap="round" stroke-linejoin="round"/>
<path d="M9.00025 8.40356H3.92624C2.113 8.40356 0.643066 9.8735 0.643066 11.6867C0.643066 13.5 2.113 14.9699 3.92624 14.9699H5.4186" stroke="#495B69" stroke-linecap="round" stroke-linejoin="round"/>
<path d="M12.5817 8.40324H14.3725C16.021 8.40324 17.3572 7.06695 17.3572 5.41853C17.3572 3.77013 16.021 2.43384 14.3725 2.43384H7.80615" stroke="#495B69" stroke-linecap="round" stroke-linejoin="round"/>
<path d="M4.22472 2.43384H0.643066" stroke="#495B69" stroke-linecap="round" stroke-linejoin="round"/>
</g>
<defs>
<clipPath id="clip0_36_560">
<rect width="18" height="18" fill="white"/>
</clipPath>
</defs>
</svg>
