<svg width="117" height="106" viewBox="0 0 117 106" fill="none" xmlns="http://www.w3.org/2000/svg">
<path d="M52.9074 12.7816C51.7518 9.95445 48.855 8.01094 45.5308 7.8739C33.5242 7.37882 26.2803 7.51147 16.6466 8.12595C12.6216 8.3827 9.42136 11.2568 8.9608 14.8884C6.14134 37.1211 5.20594 59.4311 8.14301 81.7146C9.13964 89.2762 15.9739 94.7723 24.1499 95.5787C47.2363 97.8562 69.9908 97.7979 93.076 95.5211C101.098 94.7299 107.538 88.9741 108.495 81.7146C110.31 67.9426 110.794 53.8252 109.664 36.5084C109.196 29.3343 102.987 23.561 95.0809 22.968C83.8447 22.1253 76.0354 22.077 62.2258 21.8123C58.8037 21.7466 55.7715 19.7881 54.5828 16.8801L52.9074 12.7816Z" fill="#AAD9DF" stroke="#495B69" stroke-width="3.17691" stroke-linejoin="round"/>
</svg>
