<svg width="45" height="45" viewBox="0 0 45 45" fill="none" xmlns="http://www.w3.org/2000/svg">
<path d="M20.1124 5.36307C19.6731 4.17681 18.5719 3.36133 17.3082 3.30382C12.744 3.09609 9.99027 3.15175 6.32809 3.40958C4.79803 3.51731 3.58146 4.72327 3.40638 6.24707C2.33458 15.5757 1.979 24.9368 3.0955 34.2868C3.47437 37.4596 6.07238 39.7657 9.18041 40.104C17.9565 41.0596 26.6065 41.0352 35.3822 40.0799C38.4317 39.7479 40.8798 37.3328 41.2436 34.2868C41.9336 28.5081 42.1176 22.5846 41.688 15.3186C41.5101 12.3084 39.1497 9.886 36.1443 9.63718C31.873 9.28359 28.9043 9.26332 23.6547 9.15226C22.3538 9.12472 21.2011 8.30294 20.7493 7.08276L20.1124 5.36307Z" fill="#AAD9DF" stroke="#495B69" stroke-width="3.17691" stroke-linejoin="round"/>
</svg>
