<svg width="21" height="20" viewBox="0 0 21 20" fill="none" xmlns="http://www.w3.org/2000/svg">
<g clip-path="url(#clip0_30_515)">
<path d="M1.4398 14.6693C1.671 16.7274 3.40905 18.3827 5.56899 18.612C7.17332 18.7823 8.82056 18.9286 10.5 18.9286C12.1794 18.9286 13.8267 18.7823 15.431 18.612C17.591 18.3827 19.329 16.7274 19.5602 14.6693C19.7309 13.15 19.875 11.5902 19.875 9.99998C19.875 8.40975 19.7309 6.84995 19.5602 5.33065C19.329 3.27258 17.591 1.61728 15.431 1.388C13.8267 1.21769 12.1794 1.07141 10.5 1.07141C8.82056 1.07141 7.17332 1.21769 5.56899 1.388C3.40905 1.61728 1.671 3.27258 1.4398 5.33065C1.26912 6.84995 1.125 8.40975 1.125 9.99998C1.125 11.5902 1.26913 13.15 1.4398 14.6693Z" fill="#F5F5F5" stroke="#495B69" stroke-width="2"/>
<path d="M6 6.42859H10.5" stroke="#495B69" stroke-width="2" stroke-linecap="round" stroke-linejoin="round"/>
<path d="M15 13.5714H10.5" stroke="#495B69" stroke-width="2" stroke-linecap="round" stroke-linejoin="round"/>
<path d="M12.75 8.57148C13.9926 8.57148 15 7.61209 15 6.42862C15 5.24515 13.9926 4.28577 12.75 4.28577C11.5074 4.28577 10.5 5.24515 10.5 6.42862C10.5 7.61209 11.5074 8.57148 12.75 8.57148Z" fill="#F5F5F5" stroke="#495B69" stroke-width="2" stroke-linecap="round" stroke-linejoin="round"/>
<path d="M8.25 15.7143C7.00735 15.7143 6 14.7549 6 13.5714C6 12.388 7.00735 11.4286 8.25 11.4286C9.49265 11.4286 10.5 12.388 10.5 13.5714C10.5 14.7549 9.49265 15.7143 8.25 15.7143Z" fill="#F5F5F5" stroke="#495B69" stroke-width="2" stroke-linecap="round" stroke-linejoin="round"/>
</g>
<defs>
<clipPath id="clip0_30_515">
<rect width="21" height="20" fill="white"/>
</clipPath>
</defs>
</svg>
