<svg width="21" height="20" viewBox="0 0 21 20" fill="none" xmlns="http://www.w3.org/2000/svg">
<g clip-path="url(#clip0_43_681)">
<path d="M1.4398 14.6694C1.671 16.7275 3.40905 18.3828 5.56899 18.6121C7.17332 18.7824 8.82056 18.9287 10.5 18.9287C12.1794 18.9287 13.8267 18.7824 15.431 18.6121C17.591 18.3828 19.329 16.7275 19.5602 14.6694C19.7309 13.1501 19.875 11.5903 19.875 10.0001C19.875 8.40988 19.7309 6.85008 19.5602 5.33078C19.329 3.2727 17.591 1.6174 15.431 1.38812C13.8267 1.21781 12.1794 1.07153 10.5 1.07153C8.82056 1.07153 7.17332 1.21781 5.56899 1.38812C3.40905 1.6174 1.671 3.2727 1.4398 5.33078C1.26912 6.85008 1.125 8.40988 1.125 10.0001C1.125 11.5903 1.26913 13.1501 1.4398 14.6694Z" fill="#F5F5F5" stroke="#495B69"/>
<path d="M6 6.42871H10.5" stroke="#495B69" stroke-linecap="round" stroke-linejoin="round"/>
<path d="M15 13.5715H10.5" stroke="#495B69" stroke-linecap="round" stroke-linejoin="round"/>
<path d="M12.75 8.57136C13.9926 8.57136 15 7.61197 15 6.4285C15 5.24503 13.9926 4.28564 12.75 4.28564C11.5074 4.28564 10.5 5.24503 10.5 6.4285C10.5 7.61197 11.5074 8.57136 12.75 8.57136Z" fill="#F5F5F5" stroke="#495B69" stroke-linecap="round" stroke-linejoin="round"/>
<path d="M8.25 15.7144C7.00736 15.7144 6 14.755 6 13.5716C6 12.3881 7.00736 11.4287 8.25 11.4287C9.49264 11.4287 10.5 12.3881 10.5 13.5716C10.5 14.755 9.49264 15.7144 8.25 15.7144Z" fill="#F5F5F5" stroke="#495B69" stroke-linecap="round" stroke-linejoin="round"/>
</g>
<defs>
<clipPath id="clip0_43_681">
<rect width="21" height="20" fill="white"/>
</clipPath>
</defs>
</svg>
